<svg xmlns="http://www.w3.org/2000/svg" viewBox="0 0 100 32" fill="none">
  <!-- Samsung Pay logo - path-based for flutter_svg compatibility -->
  <!-- "S" -->
  <path d="M4 19.5c0-2 1.6-3.5 3.8-3.5 1.5 0 2.7.7 3.3 1.8l-1.6 1c-.4-.7-1-.9-1.7-.9-1 0-1.8.6-1.8 1.6 0 .8.6 1.2 1.8 1.5 2 .5 3.2 1.2 3.2 3 0 2.1-1.7 3.5-3.9 3.5-1.8 0-3.2-.8-3.8-2.2l1.7-.9c.3.8 1.1 1.3 2.1 1.3 1.1 0 1.9-.5 1.9-1.4 0-.8-.6-1.2-2-1.5-1.8-.5-2.9-1.2-2.9-2.9z" fill="#1428A0"/>
  <!-- "a" -->
  <path d="M14 20c0-3.8 1.2-4 2.6-4 .8 0 1.5.4 1.9 1V16.2h1.6v9.5h-1.6v-.8c-.4.6-1.1 1-1.9 1-1.5 0-2.6-1-2.6-3.5v-.1c0-.8 0-1.5 0-2.3zm2.9-.2c-1.1 0-1.5.8-1.5 2.4 0 1.6.5 2.3 1.5 2.3s1.5-.8 1.5-2.3-.5-2.4-1.5-2.4z" fill="#1428A0"/>
  <!-- "m" -->
  <path d="M22 16.2h1.6v.9c.4-.6 1-.9 1.7-.9s1.3.3 1.6.9c.5-.6 1.2-.9 1.9-.9 1.3 0 2 .8 2 2.3v7.2h-1.6v-6.8c0-.8-.4-1.2-1-1.2-.7 0-1.2.5-1.2 1.4v6.6h-1.6v-6.8c0-.8-.4-1.2-1-1.2-.7 0-1.2.5-1.2 1.4v6.6H22v-9.5z" fill="#1428A0"/>
  <!-- "s" -->
  <path d="M32.5 22.2c0-1.5 1.2-2.2 3-2.2h1.3v-.3c0-.8-.5-1.3-1.3-1.3-.7 0-1.2.3-1.5.8l-1.2-.8c.5-.9 1.5-1.5 2.8-1.5 1.8 0 2.9 1 2.9 2.7v6h-1.6v-.7c-.4.6-1.1.9-1.9.9-1.4 0-2.5-.8-2.5-2.2v-.1c0-.5 0-.9 0-1.3zm3 1.4c.8 0 1.3-.5 1.3-1.3v-.5h-1.1c-.9 0-1.5.4-1.5 1.1 0 .5.4.8 1.3.8v-.1z" fill="#1428A0"/>
  <!-- "u" -->
  <path d="M40 16.2h1.6v6.5c0 .9.5 1.4 1.2 1.4.8 0 1.3-.5 1.3-1.4v-6.5h1.6v6.8c0 1.8-1.1 2.8-2.9 2.8s-2.8-1-2.8-2.8v-6.8z" fill="#1428A0"/>
  <!-- "n" -->
  <path d="M48 16.2h1.6v.9c.4-.6 1.1-.9 1.9-.9 1.4 0 2.2.9 2.2 2.4v7.1h-1.6v-6.6c0-.9-.4-1.3-1.2-1.3-.7 0-1.3.5-1.3 1.4v6.5H48v-9.5z" fill="#1428A0"/>
  <!-- "g" -->
  <path d="M55.5 20c0-1.3 0-2.1 0-3.5 0-1 1.2-1.5 2.6-1.5.8 0 1.5.3 2 .8v-.6h1.6v8.7c0 2-1.3 3.2-3.3 3.2-1.2 0-2.2-.4-2.8-1.2l1-.9c.4.5 1 .7 1.7.7 1.1 0 1.7-.6 1.7-1.6v-.7c-.4.5-1.1.9-1.9.9-1.4 0-2.6-1.2-2.6-3.2v-1.1zm2.9-2.2c-1 0-1.5.8-1.5 2.2s.5 2.2 1.5 2.2 1.5-.8 1.5-2.2-.5-2.2-1.5-2.2z" fill="#1428A0"/>
  <!-- separator -->
  <rect x="64" y="14" width="1" height="14" rx="0.5" fill="#1428A0" opacity="0.25"/>
  <!-- "P" -->
  <path d="M69 16h3.5c2 0 3.2 1.2 3.2 3s-1.2 3-3.2 3H71v3.7h-2V16zm3.3 4.5c.8 0 1.3-.5 1.3-1.5s-.5-1.5-1.3-1.5H71v3h1.3z" fill="#1428A0"/>
  <!-- "a" -->
  <path d="M77 22c0-2.5 1.2-4 2.6-4 .8 0 1.5.4 1.9 1v-.8h1.6v7.5h-1.6v-.8c-.4.6-1.1 1-1.9 1-1.5 0-2.6-1.2-2.6-3.5v-.4zm2.9-2.2c-1 0-1.5.8-1.5 2.4s.5 2.3 1.5 2.3 1.5-.8 1.5-2.3-.5-2.4-1.5-2.4z" fill="#1428A0"/>
  <!-- "y" -->
  <path d="M85 18.2h1.7l1.5 5 1.5-5h1.7L88.6 26c-.5 1.3-1.2 1.8-2.2 1.8-.4 0-.8-.1-1.1-.2v-1.4c.3.1.5.2.8.2.5 0 .8-.3 1-.7l.1-.4L85 18.2z" fill="#1428A0"/>
</svg>
