<svg xmlns="http://www.w3.org/2000/svg" viewBox="0 0 62 32" fill="none">
  <!-- STC Pay logo - path-based for flutter_svg compatibility -->
  <!-- "s" letter -->
  <path d="M4 20.5c0-1.5 1.2-2.5 3-2.5 1.3 0 2.2.5 2.7 1.2l-1.2.9c-.3-.4-.8-.7-1.5-.7-.8 0-1.3.3-1.3.9s.5.8 1.5 1c1.8.4 2.8 1 2.8 2.5 0 1.6-1.3 2.7-3.2 2.7-1.5 0-2.6-.6-3.2-1.5l1.2-.9c.4.6 1 .9 1.9.9.9 0 1.4-.4 1.4-1s-.5-.8-1.6-1.1C5 22.5 4 21.9 4 20.5z" fill="#4F008C"/>
  <!-- "t" letter -->
  <path d="M14 16h1.8v2H18v1.5h-2.2v3.8c0 .7.3 1 .9 1 .4 0 .8-.1 1.1-.3v1.5c-.4.2-1 .3-1.5.3-1.5 0-2.3-.8-2.3-2.3V19.5h-1.3V18H14v-2z" fill="#4F008C"/>
  <!-- "c" letter -->
  <path d="M22.5 17.8c2.4 0 3.8 1.6 3.8 4.2h-.1l.1.1c0 .2 0 .3-.1.5H21c.2 1.2 1 1.8 2 1.8.8 0 1.4-.3 1.9-.8l1.1 1c-.7.9-1.7 1.4-3.1 1.4-2.3 0-3.8-1.6-3.8-4.1 0-2.4 1.5-4.1 3.4-4.1zm-1.5 3.5h3.3c-.1-1.1-.7-1.9-1.6-1.9-1 0-1.5.8-1.7 1.9z" fill="#4F008C"/>
  <!-- dot above "c" -->
  <circle cx="22.5" cy="15" r="1.2" fill="#4F008C"/>
  <!-- separator -->
  <rect x="29" y="16" width="1" height="10" rx="0.5" fill="#4F008C" opacity="0.3"/>
  <!-- "p" -->
  <path d="M34 18h1.8v1c.5-.7 1.3-1.2 2.2-1.2 1.8 0 3 1.5 3 3.9 0 2.5-1.2 4-3 4-.9 0-1.6-.4-2.2-1.1v3.5H34V18zm3.5 1.3c-1.1 0-1.7.9-1.7 2.5s.6 2.5 1.7 2.5c1 0 1.7-.9 1.7-2.5s-.7-2.5-1.7-2.5z" fill="#4F008C"/>
  <!-- "a" -->
  <path d="M43.5 22c0-2.5 1.4-4.2 3.3-4.2.9 0 1.6.4 2 1v-.8h1.8v7.6c0 2.3-1.4 3.6-3.6 3.6-1.3 0-2.4-.4-3.1-1.2l1-1.2c.5.5 1.2.8 2 .8 1.1 0 1.8-.7 1.8-1.8V25c-.5.7-1.2 1-2 1-2 0-3.2-1.6-3.2-4zm3.7-2.7c-1 0-1.8.9-1.8 2.6 0 1.6.7 2.6 1.8 2.6 1 0 1.7-.9 1.7-2.6 0-1.6-.7-2.6-1.7-2.6z" fill="#4F008C"/>
  <!-- "y" -->
  <path d="M53 18h1.9l1.8 5.2 1.8-5.2H60l-3.3 8.5c-.5 1.4-1.2 2-2.4 2-.5 0-.9-.1-1.3-.3v-1.5c.3.2.7.3 1 .3.5 0 .9-.3 1.1-.8l.2-.5L53 18z" fill="#4F008C"/>
</svg>
