<svg width="200" height="152" viewBox="0 0 200 152" fill="none" xmlns="http://www.w3.org/2000/svg">
<path d="M190.782 150.838H9.21792C4.12941 150.832 0.00579717 146.709 0 141.62V9.21783C0.00579717 4.12932 4.12941 0.00571436 9.21792 0H190.782C195.871 0.00571436 199.994 4.12932 200 9.21783V141.62C199.994 146.709 195.871 150.832 190.782 150.838Z" fill="#E6E6E6"/>
<path d="M178.005 150.559H176.76L157.519 111.799L156.961 110.681L142.732 82.0111L118.62 33.4358L118.067 32.3184L102.162 0.279327H103.413L119.313 32.3184L119.871 33.4358L143.369 80.7765L143.922 81.8938L158.145 110.542L178.005 150.559Z" fill="white"/>
<path d="M199.721 32.321H0.279297V33.4383H199.721V32.321Z" fill="white"/>
<path d="M199.721 80.7792H142.971V81.8965H199.721V80.7792Z" fill="white"/>
<path d="M54.478 0.279449H53.3607V151.117H54.478V0.279449Z" fill="white"/>
<path d="M157.865 110.68H53.9193V111.797H157.865V110.68Z" fill="white"/>
<path d="M118.994 59.218C118.994 68.7407 104.99 95.5945 99.7301 105.344C99.1459 106.43 97.7927 106.836 96.7075 106.251C96.3229 106.044 96.0075 105.729 95.8005 105.344C90.5407 95.5945 76.5363 68.7407 76.5363 59.218C76.5363 47.4935 86.0408 37.989 97.7653 37.989C109.49 37.989 118.994 47.4934 118.994 59.218Z" fill="#FF6366"/>
<path d="M104.478 65.9333C108.187 62.2244 108.187 56.2112 104.478 52.5024C100.77 48.7935 94.7563 48.7935 91.0475 52.5024C87.3386 56.2112 87.3386 62.2244 91.0475 65.9333C94.7563 69.6421 100.77 69.6421 104.478 65.9333Z" fill="#E6E6E6"/>
<path d="M101.567 112.65C102.063 110.548 100.762 108.442 98.66 107.945C96.5581 107.449 94.4519 108.751 93.9555 110.853C93.4592 112.954 94.7608 115.061 96.8627 115.557C98.9646 116.053 101.071 114.752 101.567 112.65Z" fill="#FF6366"/>
</svg>
