<svg xmlns="http://www.w3.org/2000/svg" viewBox="0 0 190 100">
  <!-- Red background -->
  <rect width="190" height="100" fill="#B22234"/>
  <!-- White stripes -->
  <rect y="7.69" width="190" height="7.69" fill="#fff"/>
  <rect y="23.08" width="190" height="7.69" fill="#fff"/>
  <rect y="38.46" width="190" height="7.69" fill="#fff"/>
  <rect y="53.85" width="190" height="7.69" fill="#fff"/>
  <rect y="69.23" width="190" height="7.69" fill="#fff"/>
  <rect y="84.62" width="190" height="7.69" fill="#fff"/>
  <!-- Blue canton -->
  <rect width="76" height="53.85" fill="#3C3B6E"/>
  <!-- Stars (simplified as small white circles) -->
  <g fill="#fff">
    <!-- Row 1: 6 stars -->
    <circle cx="6.3" cy="4.5" r="2.5"/><circle cx="19" cy="4.5" r="2.5"/><circle cx="31.7" cy="4.5" r="2.5"/><circle cx="44.3" cy="4.5" r="2.5"/><circle cx="57" cy="4.5" r="2.5"/><circle cx="69.7" cy="4.5" r="2.5"/>
    <!-- Row 2: 5 stars -->
    <circle cx="12.7" cy="10.3" r="2.5"/><circle cx="25.3" cy="10.3" r="2.5"/><circle cx="38" cy="10.3" r="2.5"/><circle cx="50.7" cy="10.3" r="2.5"/><circle cx="63.3" cy="10.3" r="2.5"/>
    <!-- Row 3: 6 stars -->
    <circle cx="6.3" cy="16.1" r="2.5"/><circle cx="19" cy="16.1" r="2.5"/><circle cx="31.7" cy="16.1" r="2.5"/><circle cx="44.3" cy="16.1" r="2.5"/><circle cx="57" cy="16.1" r="2.5"/><circle cx="69.7" cy="16.1" r="2.5"/>
    <!-- Row 4: 5 stars -->
    <circle cx="12.7" cy="21.9" r="2.5"/><circle cx="25.3" cy="21.9" r="2.5"/><circle cx="38" cy="21.9" r="2.5"/><circle cx="50.7" cy="21.9" r="2.5"/><circle cx="63.3" cy="21.9" r="2.5"/>
    <!-- Row 5: 6 stars -->
    <circle cx="6.3" cy="27.7" r="2.5"/><circle cx="19" cy="27.7" r="2.5"/><circle cx="31.7" cy="27.7" r="2.5"/><circle cx="44.3" cy="27.7" r="2.5"/><circle cx="57" cy="27.7" r="2.5"/><circle cx="69.7" cy="27.7" r="2.5"/>
    <!-- Row 6: 5 stars -->
    <circle cx="12.7" cy="33.5" r="2.5"/><circle cx="25.3" cy="33.5" r="2.5"/><circle cx="38" cy="33.5" r="2.5"/><circle cx="50.7" cy="33.5" r="2.5"/><circle cx="63.3" cy="33.5" r="2.5"/>
    <!-- Row 7: 6 stars -->
    <circle cx="6.3" cy="39.3" r="2.5"/><circle cx="19" cy="39.3" r="2.5"/><circle cx="31.7" cy="39.3" r="2.5"/><circle cx="44.3" cy="39.3" r="2.5"/><circle cx="57" cy="39.3" r="2.5"/><circle cx="69.7" cy="39.3" r="2.5"/>
    <!-- Row 8: 5 stars -->
    <circle cx="12.7" cy="45.1" r="2.5"/><circle cx="25.3" cy="45.1" r="2.5"/><circle cx="38" cy="45.1" r="2.5"/><circle cx="50.7" cy="45.1" r="2.5"/><circle cx="63.3" cy="45.1" r="2.5"/>
    <!-- Row 9: 6 stars -->
    <circle cx="6.3" cy="50.9" r="2.5"/><circle cx="19" cy="50.9" r="2.5"/><circle cx="31.7" cy="50.9" r="2.5"/><circle cx="44.3" cy="50.9" r="2.5"/><circle cx="57" cy="50.9" r="2.5"/><circle cx="69.7" cy="50.9" r="2.5"/>
  </g>
</svg>
